<svg width="22" height="22" viewBox="0 0 22 22" fill="none" xmlns="http://www.w3.org/2000/svg">
<path d="M13.2168 5.03244C12.7805 4.95183 12.3797 5.23031 12.2966 5.65626C12.2135 6.08222 12.4929 6.4981 12.9174 6.58146C14.1955 6.83062 15.1823 7.81994 15.4325 9.1024V9.10331C15.5037 9.47248 15.8287 9.74088 16.203 9.74088C16.2532 9.74088 16.3034 9.7363 16.3545 9.72714C16.779 9.64194 17.0583 9.22698 16.9753 8.8001C16.6019 6.88467 15.1275 5.40527 13.2168 5.03244Z" fill="white"/>
<path opacity="0.4" d="M13.1599 1.84052C12.9554 1.81121 12.75 1.87167 12.5866 2.00174C12.4187 2.13365 12.3137 2.32419 12.2908 2.53763C12.2425 2.96908 12.5538 3.35931 12.9847 3.40786C15.9562 3.73947 18.2658 6.05429 18.6 9.03508C18.6447 9.43447 18.9797 9.73585 19.3796 9.73585C19.4097 9.73585 19.4389 9.73402 19.4691 9.73035C19.6781 9.70745 19.8643 9.60394 19.9958 9.43905C20.1264 9.27417 20.1857 9.06897 20.162 8.8592C19.7457 5.14009 16.8673 2.25365 13.1599 1.84052Z" fill="white"/>
<path d="M9.75893 12.245C10.7102 13.1959 11.5249 13.6826 12.2735 13.866C13.0328 14.052 13.6569 13.9088 14.1719 13.7419C14.2854 13.7052 14.3964 13.6663 14.4997 13.6301C14.5114 13.626 14.5231 13.6219 14.5346 13.6179C14.6501 13.5775 14.7559 13.5409 14.8592 13.509C15.0663 13.445 15.2414 13.4072 15.4073 13.4029C15.7016 13.3951 16.064 13.4891 16.5734 13.9981C16.8537 14.2783 17.119 14.5307 17.3594 14.7593L17.373 14.7722C17.6191 15.0063 17.8354 15.2124 18.0237 15.4054C18.4093 15.8009 18.6203 16.087 18.7057 16.3451C18.779 16.5665 18.7765 16.82 18.5799 17.2044C18.3738 17.6075 17.9704 18.1199 17.2779 18.8137C17.2389 18.8479 17.201 18.8868 17.1766 18.9119C17.1742 18.9143 17.1719 18.9167 17.1698 18.9188L17.1658 18.923C17.1282 18.9615 17.0891 19.0015 17.0427 19.0456C16.9481 19.1356 16.8267 19.2388 16.6709 19.3351C16.3661 19.5235 15.9028 19.7024 15.2103 19.6605C13.7952 19.5748 11.3527 18.56 7.39773 14.6061C3.44229 10.6517 2.42609 8.20892 2.33962 6.79329C2.29731 6.10052 2.47603 5.63696 2.66422 5.33202C2.76041 5.17616 2.86355 5.0547 2.95342 4.9601C2.99758 4.91362 3.03768 4.87445 3.07628 4.83675L3.08009 4.83302C3.08228 4.83088 3.08462 4.8286 3.0871 4.82619C3.11218 4.80174 3.15096 4.76396 3.18513 4.72509C3.88083 4.03076 4.39426 3.62643 4.79772 3.42004C5.18241 3.22325 5.43534 3.22111 5.65593 3.29446C5.91352 3.38012 6.19895 3.59149 6.59419 3.97792C6.78713 4.16656 6.99298 4.38307 7.22704 4.62942L7.231 4.63358C7.462 4.87671 7.71732 5.14543 8.00145 5.42949C8.51089 5.93879 8.60523 6.30142 8.59773 6.59594C8.5935 6.76194 8.55585 6.93716 8.49213 7.14428C8.46031 7.24771 8.42381 7.35356 8.38349 7.4691C8.37944 7.48069 8.37536 7.49239 8.37123 7.50419C8.33515 7.60748 8.29636 7.71851 8.25973 7.83193C8.09333 8.34718 7.9506 8.97139 8.137 9.73073C8.32078 10.4794 8.80769 11.294 9.75893 12.245Z" stroke="white"/>
</svg>
