<svg width="33" height="33" viewBox="0 0 33 33" fill="none" xmlns="http://www.w3.org/2000/svg">
<path d="M28.2 29.5435H4.19995V16.7576L16.1485 4.5L28.097 16.7576V29.5435H28.2ZM6.36304 27.3244H25.9339V17.7086L16.1485 7.67006L6.36304 17.7086V27.3244Z" fill="#081228"/>
<path d="M15.1183 23.5204L14.7063 22.041H12.1312L11.6161 23.5204H10.1741L12.6462 16.5463H14.2942L16.6633 23.5204H15.1183ZM13.3672 18.1313L12.4402 20.8787H14.1912L13.3672 18.1313Z" fill="#081228"/>
<path d="M16.8699 20.0334C16.8699 17.3916 17.6939 16.335 19.239 16.335C20.784 16.335 21.6081 17.3916 21.6081 20.0334C21.6081 22.6751 20.681 23.8374 19.239 23.8374C17.7969 23.8374 16.8699 22.6751 16.8699 20.0334ZM20.269 20.0334C20.269 18.1313 19.96 17.3916 19.342 17.3916C18.724 17.3916 18.4149 18.1313 18.4149 20.0334C18.4149 21.9354 18.724 22.6751 19.342 22.6751C19.96 22.6751 20.269 21.9354 20.269 20.0334Z" fill="#081228"/>
</svg>
