<svg width="33" height="33" viewBox="0 0 33 33" fill="none" xmlns="http://www.w3.org/2000/svg">
<g clip-path="url(#clip0_304:2088)">
<path d="M31.0384 11.6904C30.3681 11.1201 29.561 10.7728 28.7106 10.6148C28.2698 7.17628 25.3564 4.5 21.8001 4.5H11.8C8.24336 4.5 5.32979 7.17685 4.88935 10.6158C4.03985 10.7739 3.23215 11.1206 2.56173 11.6904C1.44264 12.6425 0.800049 14.0312 0.800049 15.5C0.800049 16.7676 1.28152 17.9765 2.15551 18.9033C2.57153 19.3447 2.80002 20.0166 2.80002 20.7959V25.5C2.80002 26.0527 3.24727 26.4999 3.8 26.4999H6.80003V28.4999H8.8V26.4999H24.8V28.4999H26.8V26.4999H29.8C30.3528 26.4999 30.8 26.0527 30.8 25.5V20.7959C30.8 20.0166 31.0285 19.3447 31.4445 18.9033C32.3185 17.9766 32.8 16.7676 32.8 15.5C32.8 14.0312 32.1575 12.6425 31.0384 11.6904ZM11.8001 6.49997H21.8001C24.2606 6.49997 26.3001 8.2904 26.7126 10.6347C24.4684 11.1359 22.8001 13.261 22.8001 15.7138V18.5H10.8V15.7138C10.8 13.2614 9.13205 11.1367 6.88755 10.635C7.29995 8.29076 9.33938 6.49997 11.8001 6.49997ZM29.9895 17.5322C29.2229 18.3457 28.8001 19.5049 28.8001 20.7959V24.5H4.80006V20.7959C4.80006 19.5049 4.37722 18.3457 3.61062 17.5322C3.08813 16.9775 2.80009 16.2559 2.80009 15.5C2.80009 14.6192 3.1858 13.7852 3.85771 13.2139C4.54034 12.6338 5.41532 12.3994 6.31082 12.542C7.72974 12.7724 8.80007 14.1367 8.80007 15.7138V18.5V20.5H24.8001V18.5V15.7138C24.8001 14.1367 25.8704 12.7724 27.2884 12.542C28.1907 12.3935 29.0588 12.6318 29.7425 13.2139C30.4144 13.7851 30.8001 14.6192 30.8001 15.5C30.8001 16.2559 30.512 16.9775 29.9895 17.5322Z" fill="#081228"/>
<path d="M29.4266 15.2861C29.8172 15.6767 29.8172 16.3098 29.4266 16.7004C29.0361 17.0909 28.4029 17.0909 28.0124 16.7004C27.6218 16.3098 27.6218 15.6767 28.0124 15.2861C28.4029 14.8957 29.0361 14.8957 29.4266 15.2861Z" fill="#081228"/>
<path d="M6.64585 15.2861C7.03639 15.6767 7.03639 16.3098 6.64585 16.7004C6.25532 17.0909 5.62216 17.0909 5.23162 16.7004C4.84109 16.3098 4.84109 15.6767 5.23162 15.2861C5.62216 14.8957 6.25532 14.8957 6.64585 15.2861Z" fill="#081228"/>
</g>
<defs>
<clipPath id="clip0_304:2088">
<rect width="32" height="32" fill="white" transform="translate(0.800049 0.5)"/>
</clipPath>
</defs>
</svg>
