<svg width="32" height="33" viewBox="0 0 32 33" fill="none" xmlns="http://www.w3.org/2000/svg">
<path d="M25.5834 22.3333H22.4584L25.0626 25.0416H7.56258V7.43746L10.1667 10.1458V6.91663L6.41675 3.16663L2.66675 6.91663V10.1458L5.27092 7.43746V27.2291H25.0626L22.4584 29.8333H25.5834L29.3334 26.0833L25.5834 22.3333Z" fill="#081228"/>
<path d="M18.1875 4.41663H15.6875V6.60413H18.1875V4.41663Z" fill="#081228"/>
<path d="M23.0835 4.41663H20.5835V6.60413H23.0835V4.41663Z" fill="#081228"/>
<path d="M13.1875 4.41663H10.6875V6.60413H13.1875V4.41663Z" fill="#081228"/>
<path d="M27.771 6.70829V4.41663H25.5835V6.70829H26.6252H27.771Z" fill="#081228"/>
<path d="M27.771 18.7916H25.5835V21.1875H27.771V18.7916Z" fill="#081228"/>
<path d="M27.771 9.10413H25.5835V11.5H27.771V9.10413Z" fill="#081228"/>
<path d="M27.771 14H25.5835V16.3958H27.771V14Z" fill="#081228"/>
</svg>
