<svg width="174" height="42" viewBox="0 0 174 42" fill="none" xmlns="http://www.w3.org/2000/svg">
<circle cx="21" cy="21" r="21" fill="#FFE31D"/>
<path d="M11.1426 31.2535V17.5087L19.7103 8.21436L20.4369 9.69782L12.6866 18.1142V28.892L26.068 22.9279V24.6233L11.1426 31.2535Z" fill="#081228"/>
<path d="M31.3058 31.2535H19.5894V29.7397H29.792V18.9922L17.6216 20.0518L22.6169 8.21436L30.8517 15.6317L28.9444 15.7528L23.1921 10.7877L20.0436 18.2959L31.3058 17.2968V31.2535Z" fill="#081228"/>
<path d="M53 26.4155V16.2432H54.5541V25.038H58.7926V26.4155H53Z" fill="#081228"/>
<path d="M62.8193 23.3073H64.3381C64.3381 23.8371 64.55 24.2963 64.9739 24.6495C65.3977 25.0027 65.9275 25.1793 66.634 25.1793C67.2344 25.1793 67.7289 25.038 68.1174 24.7908C68.4706 24.5435 68.6826 24.155 68.6826 23.6958C68.6826 23.4133 68.6119 23.1307 68.506 22.9541C68.3647 22.7422 68.2234 22.5656 68.0115 22.4596C67.7995 22.3536 67.5523 22.2477 67.2697 22.177C66.9872 22.1064 66.7046 22.0357 66.3867 21.9298C66.0688 21.8591 65.7863 21.7532 65.4684 21.6825C65.1505 21.6119 64.8679 21.5059 64.5854 21.3647C64.3028 21.2234 64.0556 21.0468 63.8436 20.8348C63.6317 20.6229 63.4551 20.3757 63.3491 20.0225C63.2432 19.6693 63.1725 19.3161 63.1725 18.8569C63.1725 18.0445 63.4904 17.3734 64.0909 16.8436C64.6913 16.3138 65.539 16.0312 66.5986 16.0312C67.0578 16.0312 67.4817 16.1019 67.8702 16.2079C68.2587 16.3138 68.6472 16.5257 68.9651 16.7377C69.283 16.9849 69.5656 17.3028 69.7775 17.6913C69.9894 18.0798 70.0954 18.539 70.0954 19.0688H68.506C68.506 18.539 68.3293 18.1505 68.0115 17.8326C67.6936 17.55 67.1991 17.3734 66.5986 17.3734C65.9982 17.3734 65.539 17.5147 65.2565 17.7973C64.9386 18.0798 64.7973 18.3977 64.7973 18.8216C64.7973 19.0688 64.8679 19.3161 64.9739 19.4927C65.1152 19.6693 65.2565 19.8459 65.4684 19.9518C65.6803 20.0578 65.9275 20.1638 66.2101 20.2344C66.4927 20.305 66.7752 20.3757 67.0931 20.4816C67.411 20.5523 67.6936 20.6582 68.0115 20.7289C68.3293 20.7995 68.6119 20.9408 68.8945 21.0821C69.177 21.2234 69.4243 21.4 69.6362 21.6119C69.8481 21.8238 70.0247 22.0711 70.1307 22.4243C70.272 22.7775 70.3073 23.1307 70.3073 23.5899C70.3073 24.4729 69.9894 25.1793 69.3183 25.7444C68.6472 26.3095 67.7642 26.5921 66.634 26.5921C65.539 26.5921 64.6207 26.2742 63.9143 25.6738C63.1725 25.0733 62.8193 24.2609 62.8193 23.3073Z" fill="#081228"/>
<path d="M81.7158 26.4155V16.2432H85.4598C86.4135 16.2432 87.1905 16.5257 87.791 17.1262C88.3914 17.7266 88.7093 18.4684 88.7093 19.422C88.7093 20.3757 88.3914 21.1174 87.791 21.7532C87.1905 22.3536 86.4135 22.6715 85.4598 22.6715H83.2699V26.4508H81.7158V26.4155ZM83.2699 21.2587H85.3185C85.8483 21.2587 86.3075 21.0821 86.6254 20.7289C86.9433 20.3757 87.1199 19.9165 87.1199 19.3867C87.1199 18.8569 86.9433 18.3977 86.6254 18.0798C86.3075 17.7266 85.8483 17.5853 85.3185 17.5853H83.2699V21.2587Z" fill="#081228"/>
<path d="M93.3008 26.4155V16.2432H96.9388C97.9631 16.2432 98.8108 16.5257 99.4466 17.1262C100.082 17.6913 100.4 18.4684 100.4 19.3867C100.4 20.0931 100.224 20.6936 99.8351 21.2234C99.4466 21.7532 98.9521 22.1064 98.3869 22.3183L100.718 26.4508H98.9521L96.8682 22.5655H94.9255V26.4508H93.3008V26.4155ZM94.8902 21.188H96.9035C97.4686 21.188 97.9278 21.0468 98.2457 20.7289C98.5635 20.411 98.7755 19.9518 98.7755 19.3867C98.7755 18.8569 98.5989 18.433 98.281 18.1152C97.9278 17.7973 97.4686 17.6207 96.8682 17.6207H94.9255V21.188H94.8902Z" fill="#081228"/>
<path d="M104.604 21.3294C104.604 20.729 104.674 20.1638 104.851 19.634C105.027 19.1042 105.275 18.6097 105.592 18.1859C105.91 17.762 106.299 17.3735 106.723 17.0556C107.147 16.7377 107.641 16.4905 108.206 16.3139C108.736 16.1373 109.336 16.0667 109.937 16.0667C110.926 16.0667 111.844 16.3139 112.657 16.7731C113.469 17.2322 114.105 17.868 114.564 18.6804C115.023 19.4927 115.235 20.3758 115.235 21.3647C115.235 22.1065 115.094 22.8129 114.846 23.4487C114.564 24.1197 114.211 24.6496 113.752 25.144C113.292 25.6032 112.727 25.9917 112.056 26.239C111.385 26.4862 110.679 26.6628 109.937 26.6628C109.195 26.6628 108.489 26.5215 107.818 26.2743C107.147 26.0271 106.581 25.6385 106.122 25.1794C105.663 24.7202 105.275 24.1551 105.027 23.484C104.745 22.7776 104.604 22.0711 104.604 21.3294ZM106.264 21.3294C106.264 22.4244 106.617 23.3427 107.323 24.0491C108.03 24.7555 108.913 25.144 109.972 25.144C111.032 25.144 111.915 24.7908 112.621 24.0491C113.328 23.3427 113.681 22.4244 113.681 21.3294C113.681 20.623 113.54 19.9872 113.222 19.3868C112.904 18.7863 112.48 18.3625 111.915 18.0093C111.35 17.6561 110.714 17.5148 110.008 17.5148C109.301 17.5148 108.665 17.6914 108.1 18.0093C107.535 18.3272 107.076 18.7863 106.793 19.3868C106.511 19.9872 106.264 20.623 106.264 21.3294Z" fill="#081228"/>
<path d="M119.226 23.5192H120.745C120.745 24.0137 120.921 24.4375 121.275 24.7554C121.628 25.0733 122.052 25.2146 122.617 25.2146C122.935 25.2146 123.217 25.144 123.465 25.038C123.712 24.932 123.924 24.7554 124.065 24.5788C124.206 24.4022 124.312 24.1903 124.383 23.9431C124.454 23.6958 124.489 23.4486 124.489 23.2013V17.6207H120.78V16.2432H126.043V23.2013C126.043 23.6605 125.972 24.1197 125.831 24.5082C125.69 24.932 125.478 25.2852 125.195 25.6031C124.913 25.921 124.559 26.1682 124.1 26.3449C123.641 26.5215 123.147 26.6274 122.582 26.6274C121.628 26.6274 120.851 26.3449 120.18 25.815C119.579 25.2499 119.261 24.4729 119.226 23.5192Z" fill="#081228"/>
<path d="M131.271 26.4155V16.2432H137.31V17.6207H132.86V20.5876H136.675V21.9298H132.86V25.038H137.487V26.4155H131.271Z" fill="#081228"/>
<path d="M142.22 26.4155V16.2432H143.774V20.9408H143.88L147.765 16.2432H149.708L146.105 20.4463L149.849 26.4155H147.977L145.081 21.6825L143.809 23.166V26.4155H142.22Z" fill="#081228"/>
<path d="M153.346 17.6207V16.2432H160.94V17.6207H157.937V26.4155H156.383V17.6207H153.346Z" fill="#081228"/>
<path d="M164.472 16.2432H166.167L168.816 20.9055H168.922L171.536 16.2432H173.302L169.664 22.4949V26.4155H168.11V22.4949L164.472 16.2432Z" fill="#081228"/>
</svg>
