<svg width="33" height="33" viewBox="0 0 33 33" fill="none" xmlns="http://www.w3.org/2000/svg">
<path d="M28.3999 9.22587V4.5H23.7281V5.61197H9.07166V4.5H4.3999V9.22587H5.77395V23.7741H4.3999V28.5H9.07166V27.2027H23.7281V28.5H28.3999V23.7741H27.0259V9.22587H28.3999ZM7.69761 15.0637L15.0259 7.65058H19.2396L7.69761 19.2336V15.0637ZM9.07166 9.22587V7.55791H13.7434L7.69761 13.6737V9.22587H9.07166ZM7.69761 20.6236L20.522 7.65058H23.7281V8.66988L8.79685 23.7741H7.69761V20.6236ZM25.1022 18.3069L18.3236 25.1641H14.1098L25.1022 14.0444V18.3069ZM23.7281 23.7741V25.2568H19.606L25.1022 19.6969V23.8668H23.7281V23.7741ZM25.1022 12.7471L12.8274 25.2568H9.07166V24.7934L24.461 9.22587H25.1938V12.7471H25.1022Z" fill="#081228"/>
</svg>
