<svg width="33" height="33" viewBox="0 0 33 33" fill="none" xmlns="http://www.w3.org/2000/svg">
<path d="M28.5999 26.3152H26.415V28.5H28.5999V26.3152Z" fill="#081228"/>
<path d="M24.2303 26.3152H22.0454V28.5H24.2303V26.3152Z" fill="#081228"/>
<path d="M6.64749 8.7323H4.46265V10.9171H6.64749V8.7323Z" fill="#081228"/>
<path d="M6.64749 4.36267H4.46265V6.54752H6.64749V4.36267Z" fill="#081228"/>
<path d="M11.0171 4.36267H8.83228V6.54752H11.0171V4.36267Z" fill="#081228"/>
<path d="M19.8606 4.36267H17.6758V6.54752H19.8606V4.36267Z" fill="#081228"/>
<path d="M15.491 4.36267H13.3062V6.54752H15.491V4.36267Z" fill="#081228"/>
<path d="M24.2303 4.36267H22.0454V6.54752H24.2303V4.36267Z" fill="#081228"/>
<path d="M28.5999 4.36267H26.415V6.54752H28.5999V4.36267Z" fill="#081228"/>
<path d="M28.5999 13.2061H26.415V15.3909H28.5999V13.2061Z" fill="#081228"/>
<path d="M28.5999 8.7323H26.415V10.9171H28.5999V8.7323Z" fill="#081228"/>
<path d="M28.5999 17.5758H26.415V19.7607H28.5999V17.5758Z" fill="#081228"/>
<path d="M28.5999 21.9454H26.415V24.1303H28.5999V21.9454Z" fill="#081228"/>
<path d="M4.46265 13.2061V15.3909V17.5757V19.7606V21.9454V24.1303V26.3151V28.5H6.64749H8.83234H11.0172H13.202H15.3869H17.5717H19.7566V13.2061H4.46265ZM17.6758 26.3151H15.4909H13.3061H11.0172H8.83234H6.64749V24.1303V21.9454V19.7606V17.5757V15.3909H17.6758V26.3151Z" fill="#081228"/>
</svg>
