<svg width="175" height="20" viewBox="0 0 175 20" fill="none" xmlns="http://www.w3.org/2000/svg">
<path d="M2.25 4C2.25 3.80109 2.32902 3.61032 2.46967 3.46967C2.61032 3.32902 2.80109 3.25 3 3.25H15C15.1989 3.25 15.3897 3.32902 15.5303 3.46967C15.671 3.61032 15.75 3.80109 15.75 4V5.9395C15.75 6.1384 15.6709 6.32913 15.5303 6.46975L10.7198 11.2802C10.5791 11.4209 10.5 11.6116 10.5 11.8105V13.75L7.5 16.75V11.8105C7.49996 11.6116 7.42091 11.4209 7.28025 11.2802L2.46975 6.46975C2.32909 6.32913 2.25004 6.1384 2.25 5.9395V4Z" stroke="#081228" stroke-width="1.5" stroke-linecap="round" stroke-linejoin="round"/>
<path d="M33.667 7.02V5.2H26.261V15H28.529V11.43H33.065V9.61H28.529V7.02H33.667ZM35.6224 15H37.8904V5.2H35.6224V15ZM40.6362 15H47.8182V13.152H42.9042V5.2H40.6362V15ZM50.6194 15H52.8874V7.048H56.0234V5.2H47.4834V7.048H50.6194V15ZM59.9177 13.18V10.912H64.4677V9.148H59.9177V7.02H65.0697V5.2H57.6637V15H65.2517V13.18H59.9177ZM76.1563 15L73.9583 11.85C75.2323 11.304 75.9743 10.226 75.9743 8.756C75.9743 6.558 74.3363 5.2 71.7183 5.2H67.4763V15H69.7443V12.27H71.7183H71.8303L73.7203 15H76.1563ZM73.6783 8.756C73.6783 9.82 72.9783 10.464 71.5923 10.464H69.7443V7.048H71.5923C72.9783 7.048 73.6783 7.678 73.6783 8.756ZM86.818 5.2H82.576V15H84.844V12.298H86.818C89.436 12.298 91.074 10.94 91.074 8.756C91.074 6.558 89.436 5.2 86.818 5.2ZM86.692 10.45H84.844V7.048H86.692C88.078 7.048 88.778 7.678 88.778 8.756C88.778 9.82 88.078 10.45 86.692 10.45ZM101.793 15L99.5952 11.85C100.869 11.304 101.611 10.226 101.611 8.756C101.611 6.558 99.9732 5.2 97.3552 5.2H93.1132V15H95.3812V12.27H97.3552H97.4672L99.3572 15H101.793ZM99.3152 8.756C99.3152 9.82 98.6152 10.464 97.2292 10.464H95.3812V7.048H97.2292C98.6152 7.048 99.3152 7.678 99.3152 8.756ZM108.574 15.168C111.654 15.168 113.936 13.026 113.936 10.1C113.936 7.174 111.654 5.032 108.574 5.032C105.48 5.032 103.212 7.188 103.212 10.1C103.212 13.012 105.48 15.168 108.574 15.168ZM108.574 13.236C106.824 13.236 105.508 11.962 105.508 10.1C105.508 8.238 106.824 6.964 108.574 6.964C110.324 6.964 111.64 8.238 111.64 10.1C111.64 11.962 110.324 13.236 108.574 13.236ZM117.662 15.168C119.972 15.168 121.19 13.978 121.19 11.556V5.2H115.492V7.02H118.936V11.682C118.936 12.76 118.46 13.306 117.55 13.306C116.85 13.306 116.262 12.942 115.73 12.228L114.47 13.74C115.184 14.664 116.346 15.168 117.662 15.168ZM126.104 13.18V10.912H130.654V9.148H126.104V7.02H131.256V5.2H123.85V15H131.438V13.18H126.104ZM140.368 15H143.014L138.716 9.568L142.776 5.2H140.256L135.916 9.778V5.2H133.662V15H135.916V12.522L137.232 11.15L140.368 15ZM145.806 15H148.074V7.048H151.21V5.2H142.67V7.048H145.806V15ZM157.459 15.168C160.539 15.168 162.821 13.026 162.821 10.1C162.821 7.174 160.539 5.032 157.459 5.032C154.365 5.032 152.097 7.188 152.097 10.1C152.097 13.012 154.365 15.168 157.459 15.168ZM157.459 13.236C155.709 13.236 154.393 11.962 154.393 10.1C154.393 8.238 155.709 6.964 157.459 6.964C159.209 6.964 160.525 8.238 160.525 10.1C160.525 11.962 159.209 13.236 157.459 13.236ZM171.786 5.2L168.762 12.2L165.78 5.2H163.33L167.558 15H169.798L174.04 5.2H171.786Z" fill="#081228"/>
</svg>
