<svg width="16" height="16" viewBox="0 0 16 16" fill="none" xmlns="http://www.w3.org/2000/svg">
<path d="M1.25 2C1.25 1.80109 1.32902 1.61032 1.46967 1.46967C1.61032 1.32902 1.80109 1.25 2 1.25H14C14.1989 1.25 14.3897 1.32902 14.5303 1.46967C14.671 1.61032 14.75 1.80109 14.75 2V3.9395C14.75 4.1384 14.6709 4.32913 14.5303 4.46975L9.71975 9.28025C9.57909 9.42087 9.50004 9.6116 9.5 9.8105V11.75L6.5 14.75V9.8105C6.49996 9.6116 6.42091 9.42087 6.28025 9.28025L1.46975 4.46975C1.32909 4.32913 1.25004 4.1384 1.25 3.9395V2Z" stroke="#081228" stroke-width="1.5" stroke-linecap="round" stroke-linejoin="round"/>
</svg>
